<?xml version="1.0" encoding="UTF-8"?>
<svg xmlns="http://www.w3.org/2000/svg" xmlns:xlink="http://www.w3.org/1999/xlink" width="122.25pt" height="100.499998pt" viewBox="0 0 122.25 100.499998" version="1.2">
<g id="surface1">
<path style="fill-rule:nonzero;fill:rgb(98.81897%,92.158508%,81.568909%);fill-opacity:1;stroke-width:5.82;stroke-linecap:round;stroke-linejoin:round;stroke:rgb(8.239746%,23.529053%,41.569519%);stroke-opacity:1;stroke-miterlimit:4;" d="M 390.863787 637.00755 L 787.219769 637.00755 L 787.219769 779.308589 C 787.219769 781.441384 786.80697 783.528313 785.981371 785.500576 C 785.155773 787.495772 783.986175 789.261635 782.472578 790.775232 C 780.936048 792.311762 779.193119 793.48136 777.197923 794.306958 C 775.22566 795.132556 773.161664 795.545355 771.005935 795.568289 L 407.100554 795.568289 C 404.944825 795.568289 402.880829 795.155489 400.885633 794.329891 C 398.890438 793.504293 397.147508 792.311762 395.610978 790.798165 C 394.097381 789.261635 392.90485 787.518705 392.079252 785.523509 C 391.253653 783.528313 390.840854 781.464318 390.840854 779.308589 L 390.840854 637.00755 Z M 390.863787 637.00755 " transform="matrix(0.170331,0,0,0.170331,-34.248103,-40.427927)"/>
<path style=" stroke:none;fill-rule:nonzero;fill:rgb(6.269836%,12.939453%,19.999695%);fill-opacity:1;" d="M 95.164062 53.132812 L 37.34375 52.675781 C 35.820312 52.664062 34.191406 54.171875 33.699219 56.09375 L 31.351562 65.242188 C 30.769531 67.519531 31.695312 69.425781 33.421875 69.425781 L 98.898438 69.425781 C 100.523438 69.425781 101.378906 67.585938 100.828125 65.378906 L 98.613281 56.503906 C 98.140625 54.632812 96.605469 53.144531 95.164062 53.132812 Z M 100.039062 65.378906 C 100.425781 66.964844 99.800781 68.285156 98.636719 68.285156 L 33.695312 68.242188 C 32.457031 68.242188 31.785156 66.878906 32.195312 65.238281 L 34.480469 56.09375 C 34.832031 54.699219 36.015625 53.59375 37.125 53.601562 L 95.378906 54.035156 C 96.429688 54.035156 97.546875 55.132812 97.878906 56.492188 Z M 100.039062 65.378906 "/>
<path style=" stroke:none;fill-rule:nonzero;fill:rgb(8.239746%,23.529053%,41.569519%);fill-opacity:1;" d="M 95.375 54.042969 L 37.121094 53.605469 C 36.011719 53.597656 34.828125 54.707031 34.476562 56.101562 L 32.191406 65.242188 C 31.785156 66.878906 32.457031 68.242188 33.695312 68.242188 L 98.636719 68.277344 C 99.800781 68.277344 100.425781 66.960938 100.039062 65.375 L 97.871094 56.492188 C 97.539062 55.140625 96.421875 54.050781 95.375 54.042969 Z M 77.03125 59.917969 C 77.09375 60.726562 76.644531 61.382812 76.027344 61.378906 L 57.21875 61.308594 C 56.585938 61.308594 56.128906 60.636719 56.199219 59.824219 L 56.289062 58.675781 C 56.347656 57.886719 56.894531 57.257812 57.507812 57.261719 L 75.75 57.367188 C 76.351562 57.367188 76.886719 58 76.941406 58.78125 Z M 77.03125 59.917969 "/>
<path style="fill-rule:nonzero;fill:rgb(86.268616%,61.569214%,52.159119%);fill-opacity:1;stroke-width:2.46;stroke-linecap:round;stroke-linejoin:round;stroke:rgb(60.778809%,43.139648%,36.079407%);stroke-opacity:1;stroke-miterlimit:4;" d="M 405.426424 447.647407 C 386.27713 441.409554 381.988606 441.914086 374.90222 442.762617 L 374.030756 442.877284 C 371.209961 443.19835 368.503834 443.358883 365.843572 443.450616 C 364.215309 444.757813 363.66491 446.431943 364.169443 448.450072 C 365.61424 453.724728 371.76036 459.756182 379.511811 461.682578 C 389.740056 464.251106 398.523505 450.261802 398.523505 450.261802 C 396.872308 455.330058 393.684582 465.902303 397.170441 473.928953 C 398.982171 477.850545 401.940565 480.39614 406.068556 481.588671 L 418.337864 452.004732 C 413.682407 450.399402 409.279216 448.908738 405.426424 447.647407 Z M 405.426424 447.647407 " transform="matrix(0.170331,0,0,0.170331,-34.248103,-40.427927)"/>
<path style=" stroke:none;fill-rule:nonzero;fill:rgb(50.19989%,79.60968%,86.268616%);fill-opacity:1;" d="M 42.570312 27.441406 C 42.472656 27.449219 42.390625 27.492188 42.324219 27.570312 C 42.472656 27.527344 42.625 27.496094 42.777344 27.484375 C 42.710938 27.464844 42.640625 27.449219 42.570312 27.441406 Z M 42.570312 27.441406 "/>
<path style=" stroke:none;fill-rule:nonzero;fill:rgb(50.19989%,79.60968%,86.268616%);fill-opacity:1;" d="M 75.066406 40.457031 L 55.273438 32.28125 C 55.273438 32.316406 55.261719 32.347656 55.246094 32.378906 L 75.601562 40.796875 C 75.441406 40.65625 75.261719 40.542969 75.066406 40.457031 Z M 75.066406 40.457031 "/>
<path style=" stroke:none;fill-rule:nonzero;fill:rgb(50.19989%,79.60968%,86.268616%);fill-opacity:1;" d="M 34.566406 44.171875 L 35.566406 41.75 L 37.632812 36.769531 L 37.007812 36.5625 L 34.921875 41.605469 L 34 43.832031 C 33.890625 44.101562 33.835938 44.382812 33.835938 44.675781 C 33.835938 44.96875 33.894531 45.25 34.003906 45.519531 C 34.117188 45.789062 34.273438 46.027344 34.480469 46.234375 C 34.6875 46.441406 34.925781 46.601562 35.195312 46.714844 L 35.222656 46.726562 C 34.84375 46.417969 34.589844 46.03125 34.46875 45.558594 C 34.347656 45.085938 34.378906 44.621094 34.566406 44.171875 Z M 34.566406 44.171875 "/>
<path style=" stroke:none;fill-rule:nonzero;fill:rgb(45.098877%,79.219055%,94.898987%);fill-opacity:1;" d="M 76.242188 43.726562 C 76.339844 43.488281 76.390625 43.238281 76.386719 42.980469 C 76.386719 42.726562 76.335938 42.476562 76.238281 42.238281 C 76.140625 42 76 41.792969 75.816406 41.609375 C 75.636719 41.425781 75.425781 41.285156 75.191406 41.1875 L 43.835938 28.222656 C 43.496094 28.085938 43.148438 28.046875 42.785156 28.105469 C 42.425781 28.164062 42.105469 28.316406 41.832031 28.554688 C 41.773438 28.730469 41.726562 28.910156 41.6875 29.089844 L 41.84375 29.152344 L 41.886719 29.171875 L 41.914062 29.1875 C 43.136719 29.632812 46.777344 31.0625 48.738281 32.96875 L 53.785156 35.054688 L 54.136719 35.203125 L 54.621094 35.402344 L 54.363281 36.03125 L 53.878906 35.828125 L 49.621094 34.070312 C 49.957031 34.601562 50.078125 35.179688 49.984375 35.804688 C 49.40625 39.113281 47.210938 39.113281 45.898438 39.113281 C 45.742188 39.113281 45.597656 39.113281 45.472656 39.113281 C 44.894531 39.140625 43.3125 38.675781 41.394531 38.046875 L 40.136719 41.097656 C 40.042969 41.339844 40.085938 41.550781 40.265625 41.734375 C 40.726562 42.203125 41.078125 42.742188 41.316406 43.355469 C 41.558594 43.96875 41.671875 44.601562 41.660156 45.257812 C 41.65625 45.398438 41.71875 45.496094 41.847656 45.550781 L 43.308594 46.15625 L 48.683594 48.378906 L 49.167969 48.578125 L 48.910156 49.207031 L 48.421875 49.003906 L 41.589844 46.179688 L 41.101562 45.980469 C 40.917969 45.902344 40.765625 45.777344 40.65625 45.609375 C 40.546875 45.441406 40.492188 45.257812 40.492188 45.054688 C 40.527344 43.863281 40.125 42.847656 39.289062 42 C 39.113281 41.820312 39.003906 41.605469 38.953125 41.359375 C 38.90625 41.113281 38.925781 40.871094 39.023438 40.636719 L 40.25 37.664062 C 39.660156 37.464844 39.046875 37.257812 38.4375 37.050781 L 38.121094 36.941406 L 35.152344 44.128906 C 35.054688 44.367188 35.003906 44.613281 35.003906 44.871094 C 35.003906 45.128906 35.054688 45.378906 35.152344 45.617188 C 35.25 45.851562 35.390625 46.0625 35.574219 46.246094 C 35.757812 46.425781 35.96875 46.566406 36.207031 46.664062 L 67.558594 59.628906 C 68.183594 59.886719 68.777344 59.832031 69.34375 59.46875 C 69.691406 59.253906 69.945312 58.953125 70.101562 58.574219 Z M 68.695312 54.15625 C 67.507812 54.164062 66.503906 54.601562 65.6875 55.46875 C 65.546875 55.613281 65.378906 55.707031 65.179688 55.746094 C 64.980469 55.785156 64.789062 55.769531 64.601562 55.691406 L 64.117188 55.492188 L 56.792969 52.464844 L 57.054688 51.835938 L 57.539062 52.039062 L 58.996094 52.640625 L 64.375 54.863281 C 64.503906 54.917969 64.617188 54.894531 64.714844 54.792969 C 65.167969 54.316406 65.695312 53.945312 66.300781 53.683594 C 66.902344 53.421875 67.53125 53.285156 68.191406 53.277344 C 68.449219 53.277344 68.628906 53.15625 68.730469 52.921875 L 71.355469 46.585938 C 71.457031 46.34375 71.417969 46.128906 71.230469 45.941406 C 70.765625 45.507812 70.40625 45.003906 70.152344 44.421875 C 69.894531 43.839844 69.765625 43.234375 69.765625 42.597656 C 69.765625 42.460938 69.703125 42.367188 69.574219 42.3125 L 68.933594 42.046875 L 62.734375 39.492188 L 62.246094 39.285156 L 62.5 38.65625 L 62.984375 38.859375 L 70.308594 41.886719 C 70.492188 41.960938 70.640625 42.082031 70.75 42.246094 C 70.863281 42.414062 70.917969 42.59375 70.917969 42.792969 C 70.917969 43.894531 71.339844 44.839844 72.179688 45.65625 C 72.363281 45.835938 72.484375 46.054688 72.535156 46.308594 C 72.585938 46.5625 72.558594 46.808594 72.460938 47.046875 L 69.839844 53.382812 C 69.742188 53.613281 69.589844 53.796875 69.382812 53.9375 C 69.175781 54.078125 68.945312 54.152344 68.695312 54.15625 Z M 52.050781 41.402344 L 52.050781 41.378906 L 52.105469 41.402344 L 52.535156 41.574219 L 52.589844 41.597656 L 53.953125 42.160156 C 54 42.179688 54 42.179688 54.023438 42.128906 C 54.285156 41.492188 54.546875 40.859375 54.8125 40.21875 C 54.851562 40.128906 54.875 40.039062 54.882812 39.9375 C 54.890625 39.761719 54.835938 39.605469 54.710938 39.472656 C 54.660156 39.414062 54.605469 39.359375 54.542969 39.3125 L 54.523438 39.3125 C 54.476562 39.308594 54.433594 39.3125 54.390625 39.328125 C 54.378906 39.320312 54.378906 39.308594 54.378906 39.296875 C 54.375 39.285156 54.378906 39.238281 54.378906 39.207031 C 54.269531 39.152344 54.15625 39.121094 54.039062 39.113281 C 53.992188 39.105469 53.949219 39.113281 53.90625 39.125 C 53.894531 39.117188 53.898438 39.105469 53.894531 39.097656 C 53.859375 38.816406 53.847656 38.539062 53.855469 38.257812 C 53.855469 38.25 53.855469 38.242188 53.855469 38.234375 C 53.890625 38.082031 53.980469 37.976562 54.121094 37.914062 C 54.246094 37.867188 54.375 37.84375 54.507812 37.84375 C 54.6875 37.835938 54.867188 37.847656 55.046875 37.882812 C 55.230469 37.921875 55.402344 37.988281 55.558594 38.089844 C 55.890625 38.152344 56.15625 38.316406 56.359375 38.582031 C 56.449219 38.710938 56.511719 38.847656 56.550781 38.996094 C 56.644531 39.328125 56.660156 39.664062 56.59375 40.003906 C 56.546875 40.265625 56.472656 40.519531 56.371094 40.769531 C 56.09375 41.433594 55.816406 42.101562 55.542969 42.765625 C 55.527344 42.808594 55.519531 42.8125 55.542969 42.820312 L 55.585938 42.839844 L 56.074219 43.042969 C 56.097656 43.050781 56.113281 43.0625 56.121094 43.085938 C 56.277344 43.472656 56.429688 43.855469 56.585938 44.238281 C 56.597656 44.210938 56.605469 44.183594 56.617188 44.152344 C 56.734375 43.882812 56.917969 43.671875 57.167969 43.515625 C 57.414062 43.363281 57.679688 43.3125 57.960938 43.371094 C 58.191406 43.40625 58.40625 43.480469 58.609375 43.585938 C 58.632812 43.597656 58.652344 43.613281 58.675781 43.625 C 58.820312 43.664062 58.960938 43.71875 59.09375 43.789062 C 59.429688 43.957031 59.675781 44.214844 59.828125 44.558594 C 60.0625 45.0625 60.128906 45.589844 60.019531 46.136719 C 59.972656 46.382812 59.898438 46.617188 59.796875 46.84375 C 59.585938 47.3125 59.289062 47.722656 58.90625 48.066406 C 58.644531 48.304688 58.363281 48.511719 58.054688 48.6875 C 57.679688 48.90625 57.289062 49.078125 56.878906 49.207031 C 56.363281 49.375 55.839844 49.429688 55.300781 49.378906 C 55.085938 49.355469 54.875 49.316406 54.667969 49.261719 C 54.523438 49.222656 54.382812 49.171875 54.246094 49.125 C 54.148438 49.085938 54.058594 49.042969 53.972656 48.992188 C 53.902344 48.96875 53.828125 48.949219 53.761719 48.921875 C 53.472656 48.8125 53.230469 48.644531 53.027344 48.410156 C 52.808594 48.171875 52.628906 47.910156 52.492188 47.617188 C 52.398438 47.421875 52.324219 47.222656 52.273438 47.011719 C 52.230469 46.84375 52.214844 46.675781 52.230469 46.503906 C 52.234375 46.472656 52.242188 46.441406 52.253906 46.414062 L 53.570312 43.226562 C 53.59375 43.175781 53.589844 43.175781 53.539062 43.152344 L 53.121094 42.984375 L 52.621094 42.792969 C 52.597656 42.785156 52.578125 42.765625 52.570312 42.742188 Z M 52.050781 41.402344 "/>
<path style=" stroke:none;fill-rule:nonzero;fill:rgb(45.098877%,79.219055%,94.898987%);fill-opacity:1;" d="M 53.941406 47.351562 C 54 47.488281 54.085938 47.601562 54.203125 47.691406 C 54.257812 47.734375 54.3125 47.773438 54.375 47.808594 C 54.558594 47.851562 54.75 47.867188 54.941406 47.851562 C 55.203125 47.828125 55.460938 47.769531 55.710938 47.683594 C 56.046875 47.570312 56.367188 47.421875 56.667969 47.230469 C 56.945312 47.058594 57.183594 46.84375 57.378906 46.582031 C 57.457031 46.476562 57.523438 46.367188 57.582031 46.25 C 57.582031 46.246094 57.585938 46.238281 57.589844 46.234375 L 57.570312 46.21875 L 57.46875 46.183594 C 57.226562 46.117188 57.007812 46 56.816406 45.835938 C 56.507812 45.582031 56.375 45.257812 56.414062 44.863281 C 56.425781 44.710938 56.457031 44.5625 56.503906 44.417969 C 56.503906 44.410156 56.503906 44.402344 56.503906 44.394531 L 55.140625 43.832031 C 55.089844 43.8125 55.089844 43.8125 55.070312 43.863281 C 54.691406 44.773438 54.316406 45.691406 53.9375 46.601562 C 53.832031 46.851562 53.835938 47.101562 53.941406 47.351562 Z M 53.941406 47.351562 "/>
<path style=" stroke:none;fill-rule:nonzero;fill:rgb(100%,100%,100%);fill-opacity:1;" d="M 57.542969 52.039062 L 57.054688 51.835938 L 56.796875 52.464844 L 64.117188 55.492188 L 57.28125 52.664062 Z M 57.542969 52.039062 "/>
<path style=" stroke:none;fill-rule:nonzero;fill:rgb(100%,100%,100%);fill-opacity:1;" d="M 62.25 39.289062 L 62.507812 38.660156 L 62.992188 38.859375 L 62.734375 39.488281 Z M 62.25 39.289062 "/>
<path style=" stroke:none;fill-rule:nonzero;fill:rgb(100%,100%,100%);fill-opacity:1;" d="M 40.980469 45.25 C 41.015625 44.058594 40.613281 43.042969 39.78125 42.195312 C 39.605469 42.015625 39.492188 41.800781 39.441406 41.554688 C 39.394531 41.308594 39.417969 41.066406 39.511719 40.832031 L 40.753906 37.828125 L 40.253906 37.65625 L 39.023438 40.628906 C 38.929688 40.863281 38.910156 41.101562 38.957031 41.351562 C 39.007812 41.597656 39.117188 41.8125 39.292969 41.992188 C 40.128906 42.839844 40.53125 43.855469 40.496094 45.046875 C 40.492188 45.246094 40.546875 45.433594 40.660156 45.601562 C 40.769531 45.769531 40.917969 45.894531 41.105469 45.972656 L 41.589844 46.171875 C 41.40625 46.09375 41.257812 45.972656 41.144531 45.804688 C 41.035156 45.636719 40.980469 45.449219 40.980469 45.25 Z M 40.980469 45.25 "/>
<path style=" stroke:none;fill-rule:nonzero;fill:rgb(100%,100%,100%);fill-opacity:1;" d="M 71.835938 46.78125 C 71.941406 46.539062 71.898438 46.324219 71.714844 46.132812 C 71.246094 45.703125 70.886719 45.195312 70.632812 44.617188 C 70.378906 44.035156 70.25 43.425781 70.246094 42.792969 C 70.246094 42.65625 70.183594 42.558594 70.058594 42.507812 L 69.570312 42.304688 C 69.699219 42.359375 69.761719 42.453125 69.761719 42.589844 C 69.765625 43.226562 69.894531 43.832031 70.148438 44.414062 C 70.402344 44.996094 70.761719 45.5 71.226562 45.933594 C 71.414062 46.121094 71.453125 46.335938 71.355469 46.582031 L 68.734375 52.921875 C 68.632812 53.15625 68.449219 53.277344 68.195312 53.277344 C 67.535156 53.285156 66.90625 53.417969 66.300781 53.679688 C 65.699219 53.941406 65.167969 54.3125 64.714844 54.789062 C 64.617188 54.886719 64.503906 54.910156 64.375 54.859375 L 64.859375 55.058594 C 64.988281 55.113281 65.101562 55.089844 65.199219 54.988281 C 65.652344 54.511719 66.183594 54.140625 66.785156 53.878906 C 67.386719 53.617188 68.019531 53.480469 68.675781 53.472656 C 68.933594 53.46875 69.113281 53.351562 69.214844 53.117188 Z M 71.835938 46.78125 "/>
<path style=" stroke:none;fill-rule:nonzero;fill:rgb(100%,100%,100%);fill-opacity:1;" d="M 55.582031 42.84375 L 55.539062 42.824219 L 55.574219 42.839844 Z M 55.582031 42.84375 "/>
<path style=" stroke:none;fill-rule:nonzero;fill:rgb(100%,100%,100%);fill-opacity:1;" d="M 53.945312 42.167969 L 54.429688 42.367188 C 54.480469 42.390625 54.480469 42.390625 54.5 42.335938 C 54.761719 41.703125 55.027344 41.066406 55.289062 40.429688 C 55.328125 40.339844 55.355469 40.246094 55.363281 40.148438 C 55.371094 39.96875 55.3125 39.8125 55.191406 39.679688 C 55.101562 39.578125 55 39.492188 54.878906 39.425781 C 54.773438 39.367188 54.660156 39.332031 54.539062 39.320312 C 54.601562 39.367188 54.65625 39.421875 54.707031 39.480469 C 54.832031 39.609375 54.886719 39.765625 54.878906 39.945312 C 54.871094 40.042969 54.847656 40.136719 54.808594 40.226562 C 54.542969 40.863281 54.28125 41.5 54.019531 42.136719 C 53.992188 42.183594 53.992188 42.183594 53.945312 42.167969 Z M 53.945312 42.167969 "/>
<path style=" stroke:none;fill-rule:nonzero;fill:rgb(100%,100%,100%);fill-opacity:1;" d="M 56.652344 44.425781 C 56.65625 44.433594 56.65625 44.445312 56.652344 44.453125 C 56.636719 44.453125 56.621094 44.453125 56.605469 44.441406 L 56.511719 44.402344 C 56.511719 44.410156 56.511719 44.417969 56.511719 44.425781 C 56.464844 44.570312 56.4375 44.71875 56.425781 44.871094 C 56.382812 45.265625 56.515625 45.59375 56.824219 45.84375 C 57.015625 46.007812 57.234375 46.125 57.480469 46.195312 L 57.578125 46.226562 C 57.484375 46.175781 57.394531 46.113281 57.308594 46.046875 C 57 45.792969 56.867188 45.46875 56.910156 45.070312 C 56.921875 44.917969 56.949219 44.773438 57 44.625 C 57.027344 44.535156 57.0625 44.445312 57.097656 44.359375 C 57.214844 44.085938 57.398438 43.875 57.652344 43.722656 C 57.894531 43.566406 58.160156 43.519531 58.445312 43.574219 C 58.519531 43.589844 58.597656 43.605469 58.671875 43.628906 C 58.648438 43.617188 58.628906 43.601562 58.605469 43.589844 C 58.402344 43.480469 58.1875 43.410156 57.957031 43.375 C 57.675781 43.316406 57.410156 43.367188 57.164062 43.519531 C 56.914062 43.675781 56.730469 43.886719 56.613281 44.15625 C 56.601562 44.1875 56.59375 44.214844 56.582031 44.242188 C 56.605469 44.304688 56.628906 44.363281 56.652344 44.425781 Z M 56.652344 44.425781 "/>
<path style=" stroke:none;fill-rule:nonzero;fill:rgb(100%,100%,100%);fill-opacity:1;" d="M 57.960938 46.394531 C 57.835938 46.355469 57.710938 46.304688 57.597656 46.242188 C 57.59375 46.246094 57.589844 46.253906 57.585938 46.261719 C 57.53125 46.375 57.464844 46.488281 57.386719 46.589844 C 57.1875 46.851562 56.949219 47.066406 56.671875 47.238281 C 56.371094 47.429688 56.054688 47.578125 55.71875 47.691406 C 55.46875 47.78125 55.210938 47.835938 54.949219 47.863281 C 54.757812 47.875 54.566406 47.859375 54.378906 47.816406 C 54.503906 47.894531 54.636719 47.953125 54.777344 48 C 54.992188 48.0625 55.210938 48.085938 55.433594 48.0625 C 55.695312 48.035156 55.953125 47.980469 56.203125 47.890625 C 56.539062 47.777344 56.859375 47.628906 57.160156 47.4375 C 57.4375 47.265625 57.675781 47.050781 57.871094 46.789062 C 57.949219 46.683594 58.015625 46.574219 58.074219 46.457031 C 58.078125 46.449219 58.082031 46.441406 58.082031 46.433594 Z M 57.960938 46.394531 "/>
<path style=" stroke:none;fill-rule:nonzero;fill:rgb(100%,100%,100%);fill-opacity:1;" d="M 52.535156 41.601562 C 52.535156 41.601562 52.535156 41.601562 52.535156 41.582031 L 52.105469 41.410156 L 52.050781 41.386719 L 52.050781 41.40625 L 52.574219 42.75 C 52.582031 42.773438 52.597656 42.789062 52.625 42.800781 L 53.109375 43 C 53.082031 42.988281 53.066406 42.972656 53.058594 42.949219 C 52.882812 42.496094 52.710938 42.046875 52.535156 41.601562 Z M 52.535156 41.601562 "/>
<path style=" stroke:none;fill-rule:nonzero;fill:rgb(100%,100%,100%);fill-opacity:1;" d="M 52.960938 47.824219 C 52.867188 47.632812 52.792969 47.429688 52.742188 47.222656 C 52.699219 47.054688 52.6875 46.882812 52.699219 46.710938 C 52.703125 46.679688 52.710938 46.652344 52.722656 46.625 L 54.042969 43.4375 C 54.0625 43.386719 54.0625 43.386719 54.007812 43.363281 L 53.523438 43.160156 C 53.578125 43.183594 53.578125 43.183594 53.554688 43.238281 L 52.238281 46.425781 C 52.226562 46.453125 52.21875 46.480469 52.214844 46.511719 C 52.199219 46.683594 52.214844 46.855469 52.257812 47.023438 C 52.308594 47.230469 52.382812 47.429688 52.476562 47.625 C 52.613281 47.917969 52.792969 48.183594 53.011719 48.421875 C 53.214844 48.652344 53.457031 48.820312 53.746094 48.929688 C 53.8125 48.957031 53.886719 48.976562 53.957031 49 C 53.785156 48.898438 53.628906 48.777344 53.496094 48.628906 C 53.277344 48.386719 53.097656 48.121094 52.960938 47.824219 Z M 52.960938 47.824219 "/>
<path style=" stroke:none;fill-rule:nonzero;fill:rgb(100%,100%,100%);fill-opacity:1;" d="M 53.851562 38.265625 C 53.84375 38.546875 53.855469 38.824219 53.890625 39.105469 C 53.890625 39.113281 53.890625 39.125 53.902344 39.136719 C 53.945312 39.121094 53.988281 39.117188 54.035156 39.121094 C 54.15625 39.128906 54.269531 39.164062 54.375 39.21875 C 54.347656 38.96875 54.335938 38.71875 54.34375 38.464844 C 54.34375 38.457031 54.34375 38.449219 54.34375 38.441406 C 54.378906 38.289062 54.46875 38.183594 54.609375 38.125 C 54.734375 38.078125 54.863281 38.054688 54.992188 38.050781 C 55.175781 38.042969 55.355469 38.058594 55.535156 38.09375 L 55.5625 38.09375 C 55.40625 37.992188 55.234375 37.921875 55.050781 37.886719 C 54.871094 37.851562 54.691406 37.835938 54.507812 37.847656 C 54.378906 37.847656 54.25 37.871094 54.125 37.914062 C 53.984375 37.976562 53.894531 38.082031 53.859375 38.234375 C 53.855469 38.246094 53.851562 38.253906 53.851562 38.265625 Z M 53.851562 38.265625 "/>
<path style=" stroke:none;fill-rule:nonzero;fill:rgb(8.239746%,23.529053%,41.569519%);fill-opacity:1;" d="M 53.785156 35.050781 L 48.738281 32.964844 C 49.082031 33.289062 49.375 33.65625 49.621094 34.066406 L 53.878906 35.824219 L 54.363281 36.023438 L 54.621094 35.398438 L 54.136719 35.199219 Z M 53.785156 35.050781 "/>
<path style=" stroke:none;fill-rule:nonzero;fill:rgb(8.239746%,23.529053%,41.569519%);fill-opacity:1;" d="M 76.828125 43.683594 C 76.941406 43.414062 76.996094 43.132812 76.996094 42.839844 C 76.996094 42.546875 76.9375 42.265625 76.828125 41.996094 C 76.714844 41.726562 76.558594 41.488281 76.351562 41.28125 C 76.144531 41.074219 75.90625 40.914062 75.636719 40.800781 L 75.609375 40.789062 L 55.246094 32.375 C 55.246094 32.375 55.246094 32.390625 55.234375 32.398438 C 55.167969 32.488281 55.082031 32.507812 54.980469 32.464844 C 50.621094 30.589844 44.109375 27.867188 42.78125 27.484375 C 42.625 27.496094 42.476562 27.527344 42.328125 27.570312 C 42.191406 27.722656 42.085938 27.890625 42.007812 28.082031 C 41.941406 28.234375 41.878906 28.390625 41.832031 28.550781 C 42.105469 28.3125 42.425781 28.164062 42.785156 28.105469 C 43.148438 28.042969 43.496094 28.085938 43.835938 28.222656 L 75.191406 41.1875 C 75.425781 41.285156 75.636719 41.425781 75.816406 41.609375 C 76 41.792969 76.140625 42 76.238281 42.238281 C 76.335938 42.476562 76.386719 42.726562 76.386719 42.980469 C 76.390625 43.238281 76.339844 43.488281 76.242188 43.726562 L 70.101562 58.578125 C 69.949219 58.957031 69.695312 59.253906 69.347656 59.472656 C 68.78125 59.835938 68.1875 59.886719 67.5625 59.632812 L 36.210938 46.667969 C 35.972656 46.570312 35.761719 46.429688 35.578125 46.246094 C 35.394531 46.066406 35.253906 45.855469 35.15625 45.617188 C 35.058594 45.378906 35.007812 45.132812 35.007812 44.875 C 35.007812 44.617188 35.054688 44.367188 35.15625 44.128906 L 38.125 36.941406 L 38.082031 36.929688 L 37.929688 36.875 L 37.886719 36.863281 L 37.628906 36.769531 L 35.570312 41.75 L 34.566406 44.171875 C 34.378906 44.621094 34.347656 45.085938 34.46875 45.558594 C 34.589844 46.03125 34.84375 46.417969 35.222656 46.726562 C 35.386719 46.859375 35.566406 46.972656 35.761719 47.054688 L 67.609375 60.21875 C 67.878906 60.328125 68.160156 60.382812 68.453125 60.382812 C 68.746094 60.382812 69.027344 60.328125 69.296875 60.214844 C 69.566406 60.101562 69.804688 59.945312 70.011719 59.738281 C 70.21875 59.53125 70.378906 59.292969 70.492188 59.023438 Z M 76.828125 43.683594 "/>
<path style=" stroke:none;fill-rule:nonzero;fill:rgb(8.239746%,23.529053%,41.569519%);fill-opacity:1;" d="M 41.660156 45.257812 C 41.675781 44.601562 41.5625 43.96875 41.320312 43.355469 C 41.082031 42.742188 40.730469 42.203125 40.269531 41.734375 C 40.089844 41.550781 40.046875 41.339844 40.140625 41.097656 L 41.398438 38.046875 L 40.898438 37.878906 L 40.753906 37.828125 L 39.503906 40.839844 C 39.410156 41.074219 39.386719 41.316406 39.4375 41.5625 C 39.484375 41.808594 39.597656 42.023438 39.773438 42.203125 C 40.609375 43.046875 41.011719 44.0625 40.980469 45.25 C 40.980469 45.449219 41.03125 45.636719 41.144531 45.804688 C 41.253906 45.972656 41.40625 46.097656 41.589844 46.171875 L 48.425781 49 L 48.914062 49.199219 L 49.171875 48.574219 L 48.6875 48.371094 L 43.308594 46.148438 L 41.851562 45.546875 C 41.722656 45.492188 41.660156 45.398438 41.660156 45.257812 Z M 41.660156 45.257812 "/>
<path style=" stroke:none;fill-rule:nonzero;fill:rgb(8.239746%,23.529053%,41.569519%);fill-opacity:1;" d="M 68.679688 53.476562 C 68.023438 53.484375 67.390625 53.621094 66.789062 53.882812 C 66.1875 54.148438 65.65625 54.515625 65.203125 54.992188 C 65.105469 55.09375 64.992188 55.117188 64.863281 55.066406 L 64.375 54.863281 L 59 52.640625 L 57.542969 52.039062 L 57.28125 52.667969 L 64.117188 55.492188 L 64.601562 55.691406 C 64.789062 55.769531 64.980469 55.785156 65.179688 55.746094 C 65.378906 55.707031 65.546875 55.613281 65.6875 55.46875 C 66.503906 54.601562 67.507812 54.164062 68.695312 54.15625 C 68.949219 54.152344 69.179688 54.082031 69.386719 53.941406 C 69.59375 53.800781 69.75 53.613281 69.847656 53.382812 L 72.464844 47.046875 C 72.566406 46.808594 72.589844 46.5625 72.539062 46.308594 C 72.488281 46.054688 72.371094 45.835938 72.1875 45.65625 C 71.34375 44.832031 70.929688 43.894531 70.925781 42.792969 C 70.925781 42.59375 70.871094 42.414062 70.757812 42.246094 C 70.648438 42.082031 70.5 41.960938 70.316406 41.886719 L 62.992188 38.859375 L 62.734375 39.484375 L 68.933594 42.039062 L 69.574219 42.304688 L 70.058594 42.503906 C 70.183594 42.558594 70.25 42.652344 70.25 42.789062 C 70.25 43.425781 70.378906 44.03125 70.632812 44.613281 C 70.890625 45.195312 71.25 45.699219 71.714844 46.132812 C 71.902344 46.320312 71.941406 46.535156 71.839844 46.78125 L 69.222656 53.113281 C 69.121094 53.355469 68.9375 53.476562 68.679688 53.476562 Z M 68.679688 53.476562 "/>
<path style=" stroke:none;fill-rule:nonzero;fill:rgb(8.239746%,23.529053%,41.569519%);fill-opacity:1;" d="M 54.429688 42.367188 L 53.945312 42.167969 L 52.582031 41.601562 L 52.527344 41.582031 C 52.527344 41.59375 52.527344 41.597656 52.527344 41.601562 C 52.699219 42.046875 52.878906 42.496094 53.050781 42.941406 C 53.058594 42.964844 53.078125 42.984375 53.101562 42.992188 L 53.519531 43.160156 L 54.003906 43.363281 C 54.058594 43.386719 54.058594 43.386719 54.035156 43.4375 L 52.71875 46.625 C 52.707031 46.652344 52.699219 46.679688 52.695312 46.710938 C 52.679688 46.882812 52.695312 47.054688 52.738281 47.222656 C 52.789062 47.429688 52.863281 47.632812 52.957031 47.824219 C 53.09375 48.117188 53.273438 48.382812 53.492188 48.621094 C 53.625 48.765625 53.777344 48.890625 53.949219 48.992188 C 54.039062 49.042969 54.128906 49.085938 54.226562 49.125 C 54.363281 49.171875 54.503906 49.222656 54.648438 49.261719 C 54.855469 49.316406 55.066406 49.355469 55.28125 49.378906 C 55.816406 49.429688 56.34375 49.375 56.855469 49.207031 C 57.269531 49.078125 57.660156 48.90625 58.035156 48.6875 C 58.339844 48.511719 58.625 48.304688 58.886719 48.066406 C 59.269531 47.722656 59.5625 47.3125 59.773438 46.84375 C 59.878906 46.617188 59.953125 46.382812 60 46.136719 C 60.105469 45.589844 60.042969 45.0625 59.808594 44.558594 C 59.65625 44.214844 59.410156 43.957031 59.074219 43.789062 C 58.941406 43.71875 58.800781 43.664062 58.652344 43.625 C 58.578125 43.601562 58.503906 43.585938 58.425781 43.570312 C 58.144531 43.515625 57.878906 43.5625 57.632812 43.71875 C 57.382812 43.871094 57.199219 44.085938 57.082031 44.355469 C 57.042969 44.441406 57.011719 44.523438 56.980469 44.625 C 56.933594 44.769531 56.902344 44.917969 56.894531 45.066406 C 56.851562 45.464844 56.984375 45.789062 57.292969 46.042969 C 57.375 46.109375 57.464844 46.171875 57.558594 46.222656 L 57.582031 46.238281 C 57.695312 46.300781 57.820312 46.355469 57.945312 46.390625 L 58.066406 46.433594 C 58.066406 46.441406 58.0625 46.449219 58.058594 46.457031 C 58 46.574219 57.933594 46.683594 57.855469 46.789062 C 57.660156 47.046875 57.421875 47.265625 57.144531 47.4375 C 56.84375 47.625 56.523438 47.777344 56.1875 47.890625 C 55.9375 47.976562 55.679688 48.035156 55.417969 48.058594 C 55.195312 48.082031 54.976562 48.0625 54.761719 47.996094 C 54.621094 47.953125 54.488281 47.890625 54.363281 47.816406 C 54.304688 47.78125 54.25 47.742188 54.195312 47.699219 C 54.078125 47.609375 53.988281 47.496094 53.933594 47.355469 C 53.835938 47.109375 53.839844 46.863281 53.945312 46.617188 C 54.328125 45.703125 54.703125 44.789062 55.082031 43.878906 C 55.101562 43.828125 55.101562 43.828125 55.152344 43.847656 L 56.515625 44.410156 L 56.609375 44.449219 C 56.625 44.449219 56.636719 44.464844 56.65625 44.460938 C 56.660156 44.453125 56.660156 44.441406 56.65625 44.433594 C 56.628906 44.371094 56.605469 44.308594 56.582031 44.25 C 56.425781 43.867188 56.273438 43.480469 56.121094 43.097656 C 56.109375 43.074219 56.09375 43.058594 56.070312 43.050781 L 55.585938 42.851562 L 55.574219 42.851562 L 55.539062 42.835938 C 55.523438 42.835938 55.527344 42.820312 55.539062 42.78125 C 55.8125 42.113281 56.089844 41.445312 56.367188 40.78125 C 56.46875 40.535156 56.542969 40.28125 56.589844 40.015625 C 56.65625 39.675781 56.640625 39.34375 56.546875 39.011719 C 56.507812 38.859375 56.445312 38.722656 56.355469 38.597656 C 56.152344 38.328125 55.886719 38.164062 55.554688 38.105469 L 55.527344 38.105469 C 55.347656 38.070312 55.167969 38.054688 54.988281 38.0625 C 54.855469 38.066406 54.726562 38.089844 54.601562 38.136719 C 54.460938 38.195312 54.371094 38.304688 54.335938 38.453125 C 54.335938 38.460938 54.335938 38.46875 54.335938 38.476562 C 54.328125 38.730469 54.339844 38.980469 54.367188 39.230469 C 54.367188 39.257812 54.367188 39.285156 54.367188 39.316406 C 54.367188 39.34375 54.367188 39.339844 54.378906 39.347656 C 54.421875 39.332031 54.464844 39.328125 54.511719 39.332031 L 54.53125 39.332031 C 54.652344 39.347656 54.765625 39.382812 54.871094 39.4375 C 54.992188 39.503906 55.097656 39.589844 55.183594 39.695312 C 55.304688 39.824219 55.363281 39.980469 55.355469 40.160156 C 55.347656 40.257812 55.324219 40.351562 55.28125 40.441406 C 55.019531 41.078125 54.757812 41.714844 54.496094 42.351562 C 54.480469 42.390625 54.480469 42.390625 54.429688 42.367188 Z M 54.429688 42.367188 "/>
<path style=" stroke:none;fill-rule:nonzero;fill:rgb(97.648621%,78.819275%,69.799805%);fill-opacity:1;" d="M 48.925781 33.777344 C 48.5 33.265625 48.011719 32.820312 47.464844 32.4375 C 45.367188 30.917969 42.378906 29.796875 41.582031 29.511719 L 41.378906 29.4375 C 41.339844 29.425781 41.308594 29.402344 41.285156 29.375 L 41.257812 29.363281 L 41.027344 29.269531 L 40.773438 29.164062 L 40.167969 28.917969 L 30.457031 24.957031 C 30.429688 24.945312 30.40625 24.929688 30.382812 24.910156 C 30.304688 24.828125 30.296875 24.738281 30.359375 24.644531 C 30.421875 24.550781 30.507812 24.523438 30.613281 24.570312 L 40.324219 28.527344 L 40.9375 28.777344 L 41.199219 28.886719 L 41.289062 28.921875 C 41.3125 28.832031 41.335938 28.726562 41.367188 28.609375 C 41.429688 28.378906 41.507812 28.15625 41.601562 27.9375 C 41.722656 27.617188 41.917969 27.351562 42.1875 27.140625 C 42.300781 27.0625 42.429688 27.023438 42.570312 27.023438 C 43.269531 27.023438 51.492188 30.523438 54.3125 31.726562 C 51.992188 29.03125 43.53125 19.234375 41.878906 17.953125 C 40.003906 16.5 37.171875 14.296875 31.570312 13.707031 C 30.535156 13.597656 29.578125 13.519531 28.734375 13.445312 C 25.019531 13.132812 22.738281 12.933594 20.558594 10.964844 C 19.167969 12.8125 13.171875 21.519531 12.183594 22.949219 C 12.832031 23.316406 13.414062 23.769531 13.921875 24.3125 C 14.546875 24.972656 15.054688 25.710938 15.453125 26.527344 C 16.816406 29.253906 19.992188 35.644531 29.390625 34.597656 L 29.535156 34.582031 C 30.800781 34.429688 31.5625 34.339844 34.917969 35.433594 C 35.582031 35.652344 36.34375 35.910156 37.144531 36.183594 L 37.765625 36.394531 L 38.027344 36.488281 L 38.042969 36.488281 L 38.265625 36.5625 L 38.582031 36.671875 C 39.183594 36.878906 39.792969 37.085938 40.394531 37.289062 L 40.890625 37.457031 L 41.039062 37.507812 L 41.539062 37.675781 C 43.375 38.277344 44.917969 38.734375 45.433594 38.710938 C 45.566406 38.710938 45.71875 38.710938 45.878906 38.710938 C 47.132812 38.710938 49.03125 38.710938 49.550781 35.75 C 49.691406 35.054688 49.421875 34.398438 48.925781 33.777344 Z M 46.050781 34.1875 L 44.84375 36.703125 L 45.90625 33.726562 L 49.324219 35.175781 Z M 46.050781 34.1875 "/>
<path style=" stroke:none;fill-rule:nonzero;fill:rgb(60.778809%,43.139648%,36.079407%);fill-opacity:1;" d="M 55.273438 32.273438 C 55.273438 32.222656 55.257812 32.175781 55.222656 32.136719 C 54.769531 31.605469 44.085938 19.125 42.148438 17.621094 C 40.234375 16.136719 37.347656 13.890625 31.628906 13.289062 C 30.585938 13.179688 29.628906 13.097656 28.78125 13.027344 C 25.0625 12.714844 22.820312 12.523438 20.695312 10.5 C 20.648438 10.457031 20.59375 10.4375 20.535156 10.445312 C 20.472656 10.449219 20.421875 10.476562 20.382812 10.523438 C 19.226562 11.996094 12.023438 22.46875 11.71875 22.910156 C 11.683594 22.964844 11.675781 23.019531 11.691406 23.082031 C 11.707031 23.144531 11.746094 23.191406 11.808594 23.214844 C 11.828125 23.226562 13.8125 24.105469 15.101562 26.699219 C 15.691406 27.878906 16.609375 29.726562 18.199219 31.394531 C 20.203125 33.484375 23.269531 35.28125 28.066406 35.101562 C 28.519531 35.082031 28.980469 35.054688 29.460938 35 L 29.609375 34.984375 C 30.816406 34.839844 31.546875 34.75 34.808594 35.8125 C 35.464844 36.027344 36.214844 36.285156 37.007812 36.554688 L 37.628906 36.765625 L 37.886719 36.855469 L 37.929688 36.871094 L 38.082031 36.921875 L 38.125 36.9375 L 38.441406 37.046875 C 39.050781 37.253906 39.660156 37.460938 40.253906 37.660156 L 40.753906 37.832031 L 40.898438 37.882812 L 41.398438 38.050781 C 43.316406 38.679688 44.894531 39.140625 45.476562 39.113281 C 45.601562 39.113281 45.746094 39.113281 45.902344 39.113281 C 47.210938 39.113281 49.40625 39.113281 49.988281 35.808594 C 50.082031 35.183594 49.960938 34.605469 49.621094 34.074219 C 49.378906 33.667969 49.085938 33.300781 48.742188 32.972656 C 46.78125 31.058594 43.140625 29.632812 41.917969 29.191406 L 41.890625 29.175781 L 41.84375 29.15625 L 41.691406 29.09375 C 41.730469 28.914062 41.777344 28.734375 41.832031 28.558594 C 41.882812 28.398438 41.945312 28.242188 42.011719 28.089844 C 42.089844 27.902344 42.195312 27.730469 42.332031 27.578125 C 42.394531 27.503906 42.476562 27.460938 42.578125 27.449219 C 42.648438 27.457031 42.714844 27.472656 42.785156 27.492188 C 44.109375 27.871094 50.621094 30.601562 54.984375 32.472656 C 55.085938 32.519531 55.171875 32.496094 55.238281 32.40625 C 55.238281 32.40625 55.238281 32.386719 55.25 32.382812 C 55.265625 32.347656 55.273438 32.3125 55.273438 32.273438 Z M 41.605469 27.9375 C 41.511719 28.15625 41.433594 28.378906 41.371094 28.609375 C 41.339844 28.726562 41.3125 28.832031 41.292969 28.925781 L 41.203125 28.886719 L 40.9375 28.777344 L 40.328125 28.527344 L 30.617188 24.570312 C 30.511719 24.527344 30.425781 24.550781 30.363281 24.644531 C 30.296875 24.742188 30.308594 24.828125 30.386719 24.910156 C 30.410156 24.933594 30.433594 24.949219 30.460938 24.960938 L 40.167969 28.917969 L 40.777344 29.164062 L 41.03125 29.269531 L 41.261719 29.363281 L 41.289062 29.375 C 41.3125 29.40625 41.34375 29.425781 41.378906 29.441406 L 41.585938 29.511719 C 42.382812 29.796875 45.371094 30.921875 47.464844 32.441406 C 48.015625 32.820312 48.5 33.269531 48.929688 33.78125 C 49.425781 34.398438 49.695312 35.054688 49.578125 35.730469 C 49.058594 38.691406 47.160156 38.6875 45.90625 38.6875 C 45.742188 38.6875 45.59375 38.6875 45.457031 38.6875 C 44.949219 38.714844 43.398438 38.257812 41.5625 37.65625 L 41.0625 37.488281 L 40.917969 37.4375 L 40.417969 37.265625 C 39.820312 37.066406 39.207031 36.859375 38.605469 36.648438 L 38.289062 36.542969 L 38.066406 36.464844 L 38.050781 36.464844 L 37.792969 36.375 L 37.171875 36.164062 C 36.371094 35.890625 35.609375 35.632812 34.941406 35.414062 C 31.589844 34.320312 30.828125 34.414062 29.5625 34.5625 L 29.417969 34.578125 C 20.015625 35.632812 16.835938 29.238281 15.476562 26.511719 C 15.078125 25.695312 14.566406 24.957031 13.945312 24.296875 C 13.433594 23.753906 12.855469 23.300781 12.207031 22.933594 C 13.191406 21.503906 19.191406 12.796875 20.578125 10.949219 C 22.757812 12.925781 25.039062 13.117188 28.753906 13.429688 C 29.605469 13.503906 30.554688 13.582031 31.589844 13.691406 C 37.183594 14.296875 40.015625 16.496094 41.890625 17.953125 C 43.535156 19.230469 51.996094 29.023438 54.324219 31.722656 C 51.5 30.519531 43.273438 27.023438 42.570312 27.023438 C 42.429688 27.023438 42.300781 27.066406 42.183594 27.144531 C 41.917969 27.355469 41.722656 27.621094 41.605469 27.9375 Z M 41.605469 27.9375 "/>
<path style=" stroke:none;fill-rule:nonzero;fill:rgb(100%,100%,100%);fill-opacity:1;" d="M 49.324219 35.175781 L 45.90625 33.726562 L 44.84375 36.707031 L 46.050781 34.1875 Z M 49.324219 35.175781 "/>
<path style="fill-rule:nonzero;fill:rgb(8.239746%,23.529053%,41.569519%);fill-opacity:1;stroke-width:0.62;stroke-linecap:butt;stroke-linejoin:miter;stroke:rgb(0%,0%,0%);stroke-opacity:1;stroke-miterlimit:10;" d="M 272.999907 271.602524 L 300.751077 271.577173 L 300.750759 382.594946 L 273.005833 382.588471 Z M 272.999907 271.602524 " transform="matrix(-0.141377,-0.0950013,0.0950013,-0.141377,23.851874,88.720367)"/>
</g>
</svg>
