<svg xmlns="http://www.w3.org/2000/svg" xmlns:xlink="http://www.w3.org/1999/xlink" width="166" zoomAndPan="magnify" viewBox="0 0 124.5 97.5" height="130" preserveAspectRatio="xMidYMid meet" version="1.0"><path fill="#ec5b45" d="M 53.234375 19.003906 L 47.480469 16.34375 C 47.753906 16.984375 47.9375 17.507812 48.179688 17.992188 C 48.421875 18.480469 48.363281 18.574219 47.851562 18.742188 C 46.296875 19.160156 44.867188 19.84375 43.5625 20.789062 C 42.261719 21.734375 41.171875 22.882812 40.292969 24.234375 C 39.644531 25.296875 39.21875 26.445312 39.015625 27.675781 C 38.8125 28.90625 38.84375 30.128906 39.109375 31.34375 C 39.1875 30.0625 39.425781 28.8125 39.828125 27.589844 C 40.121094 26.695312 40.539062 25.859375 41.082031 25.085938 C 41.621094 24.308594 42.265625 23.628906 43.003906 23.042969 C 43.746094 22.460938 44.554688 21.992188 45.433594 21.644531 C 46.308594 21.296875 47.21875 21.082031 48.160156 21 C 48.566406 20.945312 48.625 21.070312 48.507812 21.410156 C 48.355469 21.921875 48.226562 22.449219 48.042969 23.136719 Z M 53.234375 19.003906 " fill-opacity="1" fill-rule="nonzero"/><path fill="#046481" d="M 55.8125 49.324219 L 55.8125 49.878906 L 55.476562 49.878906 L 55.476562 52.789062 L 98.074219 52.789062 L 98.074219 49.878906 L 97.890625 49.878906 L 97.890625 49.324219 L 96.976562 49.324219 L 96.976562 31.722656 L 98.074219 31.722656 L 98.074219 28.8125 L 55.4375 28.8125 L 55.4375 31.722656 L 56.6875 31.722656 L 56.6875 49.324219 Z M 71.335938 49.878906 L 71.335938 49.324219 L 70.367188 49.324219 L 70.367188 31.722656 L 74.546875 31.722656 L 74.546875 49.324219 L 73.644531 49.324219 L 73.644531 49.878906 Z M 80.445312 49.878906 L 80.445312 49.324219 L 79.371094 49.324219 L 79.371094 31.722656 L 83.375 31.722656 L 83.375 49.324219 L 82.464844 49.324219 L 82.464844 49.878906 Z M 92.273438 49.324219 L 91.1875 49.324219 L 91.1875 49.878906 L 89.1875 49.878906 L 89.1875 49.324219 L 88.089844 49.324219 L 88.089844 31.722656 L 92.273438 31.722656 Z M 61.421875 31.722656 L 65.613281 31.722656 L 65.613281 49.324219 L 64.546875 49.324219 L 64.546875 49.878906 L 62.5 49.878906 L 62.5 49.324219 L 61.402344 49.324219 Z M 61.421875 31.722656 " fill-opacity="1" fill-rule="nonzero"/><path fill="#046481" d="M 76.894531 10.261719 L 52.507812 24.554688 L 52.507812 26.398438 L 101.109375 26.398438 L 101.109375 24.746094 Z M 76.894531 10.261719 " fill-opacity="1" fill-rule="nonzero"/><path fill="#046481" d="M 97.742188 53.664062 L 55.6875 53.664062 L 55.6875 54.757812 L 97.742188 54.757812 Z M 97.742188 53.664062 " fill-opacity="1" fill-rule="nonzero"/><path fill="#046481" d="M 101.109375 55.710938 L 52.417969 55.710938 L 52.417969 60.066406 L 101.109375 60.066406 Z M 101.109375 55.710938 " fill-opacity="1" fill-rule="nonzero"/><path fill="#046481" d="M 101.109375 61.085938 L 52.417969 61.085938 L 52.417969 65.453125 L 101.109375 65.453125 Z M 101.109375 61.085938 " fill-opacity="1" fill-rule="nonzero"/><path fill="#32bfc5" d="M 98.832031 28.917969 L 56.230469 28.917969 L 56.230469 31.832031 L 98.832031 31.832031 Z M 98.832031 28.917969 " fill-opacity="1" fill-rule="nonzero"/><path fill="#32bfc5" d="M 98.832031 50.003906 L 56.230469 50.003906 L 56.230469 52.914062 L 98.832031 52.914062 Z M 98.832031 50.003906 " fill-opacity="1" fill-rule="nonzero"/><path fill="#32bfc5" d="M 71.160156 31.480469 L 66.425781 31.480469 L 66.425781 49.449219 L 71.160156 49.449219 Z M 71.160156 31.480469 " fill-opacity="1" fill-rule="nonzero"/><path fill="#32bfc5" d="M 62.265625 31.480469 L 57.53125 31.480469 L 57.53125 49.449219 L 62.265625 49.449219 Z M 62.265625 31.480469 " fill-opacity="1" fill-rule="nonzero"/><path fill="#32bfc5" d="M 80.066406 31.480469 L 75.351562 31.480469 L 75.351562 49.449219 L 80.066406 49.449219 Z M 80.066406 31.480469 " fill-opacity="1" fill-rule="nonzero"/><path fill="#32bfc5" d="M 88.800781 31.480469 L 84.066406 31.480469 L 84.066406 49.449219 L 88.800781 49.449219 Z M 88.800781 31.480469 " fill-opacity="1" fill-rule="nonzero"/><path fill="#32bfc5" d="M 97.742188 31.480469 L 93.007812 31.480469 L 93.007812 49.449219 L 97.742188 49.449219 Z M 97.742188 31.480469 " fill-opacity="1" fill-rule="nonzero"/><path fill="#32bfc5" d="M 72.074219 49.449219 L 65.28125 49.449219 L 65.28125 50.003906 L 72.074219 50.003906 Z M 72.074219 49.449219 " fill-opacity="1" fill-rule="nonzero"/><path fill="#32bfc5" d="M 63.179688 49.449219 L 56.445312 49.449219 L 56.445312 50.003906 L 63.179688 50.003906 Z M 63.179688 49.449219 " fill-opacity="1" fill-rule="nonzero"/><path fill="#32bfc5" d="M 81.171875 49.449219 L 74.441406 49.449219 L 74.441406 50.003906 L 81.171875 50.003906 Z M 81.171875 49.449219 " fill-opacity="1" fill-rule="nonzero"/><path fill="#32bfc5" d="M 89.914062 49.449219 L 83.125 49.449219 L 83.125 50.003906 L 89.914062 50.003906 Z M 89.914062 49.449219 " fill-opacity="1" fill-rule="nonzero"/><path fill="#32bfc5" d="M 98.65625 49.449219 L 91.863281 49.449219 L 91.863281 50.003906 L 98.65625 50.003906 Z M 98.65625 49.449219 " fill-opacity="1" fill-rule="nonzero"/><path fill="#06b6e2" d="M 53.320312 26.492188 L 101.925781 26.492188 L 101.925781 24.84375 L 77.710938 10.386719 L 53.320312 24.699219 Z M 53.320312 26.492188 " fill-opacity="1" fill-rule="nonzero"/><path fill="#06b6e2" d="M 98.558594 53.777344 L 56.503906 53.777344 L 56.503906 54.875 L 98.558594 54.875 Z M 98.558594 53.777344 " fill-opacity="1" fill-rule="nonzero"/><path fill="#06b6e2" d="M 101.925781 55.835938 L 53.242188 55.835938 L 53.242188 60.191406 L 101.925781 60.191406 Z M 101.925781 55.835938 " fill-opacity="1" fill-rule="nonzero"/><path fill="#06b6e2" d="M 101.925781 61.210938 L 53.242188 61.210938 L 53.242188 65.578125 L 101.925781 65.578125 Z M 101.925781 61.210938 " fill-opacity="1" fill-rule="nonzero"/><path fill="#5f3124" d="M 27.300781 83.859375 L 23.9375 83.042969 C 22.71875 82.742188 21.730469 82.09375 20.96875 81.101562 C 20.191406 80.117188 19.800781 79 19.792969 77.746094 L 19.464844 45.414062 C 19.460938 44.863281 19.5625 44.335938 19.765625 43.824219 C 20.191406 42.769531 20.925781 42.019531 21.964844 41.5625 C 22.46875 41.34375 22.992188 41.234375 23.539062 41.234375 L 30.589844 41.203125 C 30.804688 41.203125 31.011719 41.160156 31.210938 41.078125 C 31.410156 40.992188 31.585938 40.875 31.738281 40.722656 C 31.890625 40.570312 32.003906 40.394531 32.085938 40.195312 C 32.171875 39.996094 32.210938 39.789062 32.210938 39.574219 L 32.648438 34.257812 C 32.667969 34.003906 32.742188 33.761719 32.859375 33.539062 C 32.988281 33.320312 33.148438 33.132812 33.347656 32.976562 C 33.546875 32.820312 33.769531 32.714844 34.015625 32.65625 C 34.261719 32.601562 34.507812 32.601562 34.753906 32.65625 L 42.234375 33.878906 C 42.6875 33.957031 43.058594 34.179688 43.347656 34.539062 C 43.640625 34.898438 43.78125 35.3125 43.765625 35.78125 L 42.699219 72.496094 C 42.667969 72.980469 42.484375 73.390625 42.144531 73.738281 L 36.820312 79.238281 C 36.683594 79.375 36.53125 79.488281 36.363281 79.578125 L 28.652344 83.742188 C 28.214844 83.957031 27.765625 83.996094 27.300781 83.859375 Z M 27.300781 83.859375 " fill-opacity="1" fill-rule="nonzero"/><path fill="#ee783b" d="M 21.191406 78.152344 L 46.683594 78.152344 C 47.734375 78.152344 48.625 76.570312 48.625 74.609375 L 48.625 45.707031 C 48.628906 45.351562 48.5625 45.011719 48.429688 44.6875 C 48.296875 44.359375 48.105469 44.070312 47.855469 43.820312 C 47.609375 43.570312 47.320312 43.375 46.996094 43.242188 C 46.667969 43.105469 46.332031 43.039062 45.976562 43.039062 L 23.800781 43.039062 C 23.070312 43.039062 22.445312 43.296875 21.925781 43.8125 C 21.410156 44.339844 21.152344 44.96875 21.152344 45.707031 Z M 21.191406 78.152344 " fill-opacity="1" fill-rule="nonzero"/><path fill="#6a2911" d="M 44.882812 42.425781 L 25.128906 42.230469 C 22.664062 42.230469 20.675781 43.523438 20.675781 45.144531 L 20.742188 53.207031 L 20.742188 54.339844 L 20.890625 75.4375 C 20.890625 77.085938 22.917969 78.453125 25.382812 78.472656 L 45.144531 78.675781 C 47.597656 78.675781 49.585938 77.386719 49.585938 75.765625 L 49.363281 45.511719 C 49.351562 43.8125 47.355469 42.457031 44.882812 42.425781 Z M 48.160156 75.71875 C 48.160156 76.84375 46.8125 77.753906 45.132812 77.753906 L 25.351562 77.550781 C 23.675781 77.550781 22.296875 76.582031 22.296875 75.472656 L 22.132812 54.371094 L 22.132812 53.273438 L 22.074219 45.191406 C 22.074219 44.066406 23.429688 43.152344 25.109375 43.152344 L 44.882812 43.359375 C 46.570312 43.359375 47.9375 44.328125 47.945312 45.433594 Z M 48.160156 75.71875 " fill-opacity="1" fill-rule="nonzero"/><path fill="#81d1e1" d="M 31.785156 53.136719 L 33.859375 34.257812 C 33.878906 34.097656 33.925781 33.945312 34 33.804688 C 34.078125 33.664062 34.179688 33.542969 34.300781 33.441406 C 34.425781 33.34375 34.566406 33.269531 34.71875 33.222656 C 34.875 33.175781 35.03125 33.164062 35.1875 33.179688 L 44.171875 34.257812 C 44.507812 34.289062 44.777344 34.4375 44.988281 34.703125 C 45.191406 34.964844 45.277344 35.261719 45.238281 35.59375 L 43.203125 54.429688 C 43.160156 54.761719 43.007812 55.035156 42.746094 55.242188 C 42.492188 55.460938 42.195312 55.546875 41.863281 55.503906 L 32.839844 54.476562 C 32.511719 54.441406 32.242188 54.289062 32.035156 54.03125 C 31.832031 53.765625 31.746094 53.46875 31.785156 53.136719 Z M 34.363281 34.953125 L 32.425781 52.566406 C 32.398438 52.699219 32.398438 52.832031 32.425781 52.964844 C 32.457031 53.09375 32.515625 53.207031 32.597656 53.3125 C 32.683594 53.417969 32.78125 53.5 32.898438 53.566406 C 33.019531 53.632812 33.144531 53.675781 33.277344 53.691406 L 41.554688 54.613281 C 41.6875 54.636719 41.820312 54.636719 41.953125 54.613281 C 42.078125 54.570312 42.195312 54.507812 42.300781 54.429688 C 42.398438 54.339844 42.484375 54.242188 42.550781 54.128906 C 42.609375 54.007812 42.648438 53.882812 42.667969 53.75 L 44.609375 36.136719 C 44.640625 36.007812 44.640625 35.875 44.609375 35.742188 C 44.570312 35.613281 44.511719 35.496094 44.425781 35.390625 C 44.34375 35.28125 44.242188 35.195312 44.125 35.128906 C 44.007812 35.070312 43.882812 35.03125 43.753906 35.011719 L 35.441406 34.0625 C 35.3125 34.03125 35.183594 34.03125 35.054688 34.0625 C 34.925781 34.105469 34.808594 34.164062 34.703125 34.246094 C 34.597656 34.328125 34.515625 34.429688 34.453125 34.546875 C 34.390625 34.675781 34.363281 34.8125 34.363281 34.953125 Z M 34.363281 34.953125 " fill-opacity="1" fill-rule="nonzero"/><path fill="#6fd0f6" d="M 42.871094 54.789062 L 44.957031 35.816406 C 44.980469 35.683594 44.972656 35.546875 44.941406 35.414062 C 44.90625 35.28125 44.84375 35.160156 44.757812 35.054688 C 44.671875 34.945312 44.566406 34.863281 44.445312 34.800781 C 44.324219 34.734375 44.195312 34.699219 44.054688 34.691406 L 35.132812 33.722656 C 34.851562 33.695312 34.601562 33.773438 34.382812 33.949219 C 34.164062 34.125 34.039062 34.355469 34.003906 34.632812 L 31.921875 53.566406 C 31.890625 53.84375 31.964844 54.097656 32.140625 54.316406 C 32.316406 54.535156 32.542969 54.664062 32.820312 54.699219 L 41.746094 55.671875 C 41.882812 55.691406 42.015625 55.6875 42.144531 55.652344 C 42.277344 55.621094 42.398438 55.5625 42.503906 55.476562 C 42.609375 55.394531 42.695312 55.289062 42.761719 55.171875 C 42.824219 55.050781 42.863281 54.921875 42.871094 54.789062 Z M 42.871094 54.789062 " fill-opacity="1" fill-rule="nonzero"/><path fill="#183e6b" d="M 31.695312 53.496094 L 33.773438 34.625 C 33.804688 34.292969 33.953125 34.019531 34.210938 33.808594 C 34.46875 33.597656 34.765625 33.507812 35.101562 33.546875 L 44.125 34.519531 C 44.28125 34.542969 44.429688 34.589844 44.570312 34.664062 C 44.714844 34.742188 44.835938 34.847656 44.9375 34.972656 C 45.039062 35.105469 45.109375 35.25 45.152344 35.410156 C 45.1875 35.570312 45.1875 35.726562 45.152344 35.886719 L 43.117188 54.769531 C 43.097656 54.925781 43.050781 55.078125 42.976562 55.21875 C 42.898438 55.359375 42.796875 55.480469 42.671875 55.582031 C 42.546875 55.683594 42.410156 55.753906 42.253906 55.800781 C 42.101562 55.847656 41.945312 55.863281 41.785156 55.84375 L 32.753906 54.875 C 32.425781 54.832031 32.15625 54.679688 31.949219 54.417969 C 31.734375 54.148438 31.648438 53.839844 31.695312 53.496094 Z M 34.035156 34.800781 L 32.015625 53.378906 C 31.988281 53.519531 31.988281 53.660156 32.015625 53.796875 C 32.054688 53.933594 32.121094 54.058594 32.210938 54.167969 C 32.300781 54.277344 32.40625 54.367188 32.53125 54.4375 C 32.65625 54.503906 32.789062 54.546875 32.929688 54.566406 L 41.660156 55.535156 C 41.953125 55.566406 42.214844 55.492188 42.445312 55.3125 C 42.671875 55.125 42.800781 54.882812 42.835938 54.59375 L 44.890625 36.003906 C 44.914062 35.714844 44.839844 35.453125 44.65625 35.226562 C 44.476562 35 44.238281 34.871094 43.949219 34.839844 L 35.21875 33.867188 C 35.078125 33.84375 34.941406 33.84375 34.800781 33.867188 C 34.664062 33.910156 34.535156 33.972656 34.421875 34.0625 C 34.3125 34.152344 34.222656 34.257812 34.152344 34.382812 C 34.085938 34.515625 34.046875 34.652344 34.035156 34.800781 Z M 34.035156 34.800781 " fill-opacity="1" fill-rule="nonzero"/><path fill="#ffffff" d="M 34.664062 41.609375 L 35.140625 37.273438 C 35.152344 37.160156 35.195312 37.0625 35.265625 36.972656 C 35.347656 36.894531 35.441406 36.839844 35.546875 36.808594 C 36.179688 36.644531 36.652344 36.273438 36.964844 35.703125 C 37.121094 35.4375 37.347656 35.324219 37.652344 35.363281 L 41.378906 35.769531 C 41.519531 35.78125 41.648438 35.835938 41.757812 35.925781 C 41.859375 36.023438 41.929688 36.140625 41.96875 36.273438 C 42.042969 36.566406 42.167969 36.832031 42.347656 37.070312 C 42.53125 37.304688 42.75 37.496094 43.007812 37.640625 C 43.109375 37.691406 43.183594 37.765625 43.230469 37.867188 C 43.28125 37.964844 43.300781 38.066406 43.289062 38.175781 L 42.785156 42.523438 L 42.417969 42.523438 L 42.902344 38.1875 C 42.914062 38.152344 42.914062 38.121094 42.902344 38.089844 C 42.882812 38.058594 42.863281 38.03125 42.835938 38.011719 C 42.195312 37.660156 41.792969 37.128906 41.621094 36.417969 C 41.601562 36.359375 41.566406 36.304688 41.515625 36.265625 C 41.464844 36.21875 41.40625 36.191406 41.339844 36.1875 L 37.613281 35.78125 C 37.554688 35.757812 37.492188 35.757812 37.429688 35.78125 C 37.375 35.808594 37.335938 35.851562 37.304688 35.90625 C 36.921875 36.558594 36.367188 36.976562 35.636719 37.167969 C 35.597656 37.175781 35.570312 37.195312 35.546875 37.226562 C 35.539062 37.253906 35.539062 37.285156 35.546875 37.3125 L 35.074219 41.648438 Z M 34.664062 41.609375 " fill-opacity="1" fill-rule="nonzero"/><path fill="#ffffff" d="M 33.648438 50.925781 L 34.121094 46.578125 L 34.492188 46.578125 L 34.015625 50.9375 C 34.003906 50.96875 34.003906 51 34.015625 51.03125 C 34.027344 51.066406 34.050781 51.089844 34.082031 51.101562 C 34.765625 51.460938 35.21875 52.011719 35.441406 52.75 C 35.457031 52.8125 35.488281 52.863281 35.539062 52.90625 C 35.585938 52.949219 35.640625 52.976562 35.703125 52.984375 L 39.429688 53.390625 C 39.492188 53.410156 39.558594 53.410156 39.621094 53.390625 C 39.679688 53.355469 39.726562 53.3125 39.757812 53.253906 C 39.914062 52.941406 40.125 52.675781 40.390625 52.449219 C 40.65625 52.21875 40.960938 52.054688 41.300781 51.953125 C 41.335938 51.953125 41.363281 51.9375 41.378906 51.90625 C 41.390625 51.875 41.390625 51.847656 41.378906 51.820312 L 41.863281 47.472656 L 42.234375 47.472656 L 41.757812 51.820312 C 41.742188 51.929688 41.695312 52.027344 41.621094 52.109375 C 41.550781 52.199219 41.460938 52.253906 41.351562 52.273438 C 41.066406 52.363281 40.8125 52.503906 40.582031 52.691406 C 40.355469 52.886719 40.175781 53.121094 40.050781 53.390625 C 39.980469 53.511719 39.882812 53.605469 39.757812 53.671875 C 39.632812 53.738281 39.5 53.761719 39.359375 53.75 L 35.625 53.34375 C 35.492188 53.320312 35.371094 53.265625 35.265625 53.175781 C 35.164062 53.085938 35.089844 52.976562 35.042969 52.847656 C 34.960938 52.542969 34.816406 52.273438 34.617188 52.03125 C 34.421875 51.785156 34.183594 51.597656 33.898438 51.460938 C 33.800781 51.40625 33.726562 51.328125 33.675781 51.226562 C 33.628906 51.128906 33.621094 51.03125 33.648438 50.925781 Z M 33.648438 50.925781 " fill-opacity="1" fill-rule="nonzero"/><path fill="#183e6b" d="M 34.636719 41.902344 L 35.113281 37.574219 C 35.125 37.460938 35.164062 37.359375 35.238281 37.273438 C 35.3125 37.1875 35.402344 37.128906 35.507812 37.097656 C 35.8125 37.023438 36.085938 36.890625 36.335938 36.703125 C 36.578125 36.507812 36.78125 36.273438 36.9375 36.003906 C 37.003906 35.882812 37.097656 35.789062 37.21875 35.722656 C 37.339844 35.65625 37.46875 35.636719 37.605469 35.652344 L 41.332031 36.0625 C 41.472656 36.074219 41.597656 36.125 41.707031 36.214844 C 41.820312 36.308594 41.894531 36.425781 41.933594 36.566406 C 41.992188 36.859375 42.113281 37.125 42.300781 37.359375 C 42.476562 37.609375 42.695312 37.804688 42.960938 37.953125 C 43.058594 37.992188 43.136719 38.054688 43.203125 38.136719 C 43.253906 38.234375 43.273438 38.339844 43.261719 38.449219 L 42.777344 42.792969 L 42.40625 42.792969 L 42.882812 38.429688 C 42.898438 38.394531 42.898438 38.363281 42.882812 38.332031 C 42.867188 38.300781 42.84375 38.277344 42.816406 38.261719 C 42.515625 38.089844 42.261719 37.867188 42.046875 37.59375 C 41.835938 37.316406 41.6875 37.011719 41.601562 36.671875 C 41.585938 36.605469 41.554688 36.550781 41.503906 36.507812 C 41.453125 36.464844 41.394531 36.441406 41.332031 36.4375 L 37.605469 36.03125 C 37.542969 36.011719 37.480469 36.011719 37.421875 36.03125 C 37.363281 36.066406 37.316406 36.109375 37.285156 36.167969 C 37.109375 36.480469 36.878906 36.75 36.597656 36.972656 C 36.304688 37.195312 35.980469 37.351562 35.625 37.449219 C 35.625 37.449219 35.566406 37.449219 35.546875 37.449219 C 35.535156 37.480469 35.535156 37.511719 35.546875 37.546875 L 35.0625 41.871094 Z M 34.636719 41.902344 " fill-opacity="1" fill-rule="nonzero"/><path fill="#183e6b" d="M 33.609375 51.207031 L 34.082031 46.871094 L 34.472656 46.871094 L 33.996094 51.207031 C 33.984375 51.238281 33.984375 51.273438 33.996094 51.304688 C 34.011719 51.335938 34.035156 51.363281 34.0625 51.382812 C 34.386719 51.550781 34.667969 51.777344 34.898438 52.0625 C 35.132812 52.347656 35.296875 52.671875 35.394531 53.03125 C 35.417969 53.089844 35.449219 53.140625 35.488281 53.1875 C 35.539062 53.226562 35.59375 53.25 35.65625 53.253906 L 39.390625 53.671875 C 39.453125 53.6875 39.511719 53.6875 39.574219 53.671875 C 39.632812 53.640625 39.679688 53.597656 39.710938 53.535156 C 39.863281 53.226562 40.074219 52.960938 40.339844 52.742188 C 40.605469 52.515625 40.90625 52.351562 41.242188 52.253906 C 41.273438 52.246094 41.300781 52.226562 41.320312 52.195312 C 41.328125 52.167969 41.328125 52.140625 41.320312 52.109375 L 41.804688 47.742188 L 42.175781 47.742188 L 41.699219 52.082031 C 41.6875 52.195312 41.644531 52.296875 41.5625 52.382812 C 41.488281 52.464844 41.398438 52.519531 41.292969 52.546875 C 41.007812 52.632812 40.75 52.769531 40.523438 52.964844 C 40.300781 53.160156 40.117188 53.386719 39.980469 53.652344 C 39.835938 53.9375 39.609375 54.054688 39.292969 54.011719 L 35.605469 53.664062 C 35.472656 53.648438 35.351562 53.59375 35.246094 53.507812 C 35.140625 53.417969 35.066406 53.308594 35.023438 53.175781 C 34.9375 52.875 34.796875 52.605469 34.597656 52.363281 C 34.398438 52.117188 34.160156 51.921875 33.878906 51.78125 C 33.785156 51.726562 33.714844 51.652344 33.667969 51.554688 C 33.609375 51.445312 33.589844 51.328125 33.609375 51.207031 Z M 33.609375 51.207031 " fill-opacity="1" fill-rule="nonzero"/><path fill="#ffffff" d="M 39.226562 42.367188 L 39.109375 43.464844 L 40.234375 43.582031 L 40.390625 43.582031 C 40.4375 43.570312 40.476562 43.550781 40.515625 43.523438 C 40.550781 43.496094 40.585938 43.460938 40.613281 43.425781 C 40.648438 43.359375 40.679688 43.292969 40.699219 43.222656 C 40.710938 43.152344 40.710938 43.078125 40.699219 43.007812 C 40.710938 42.984375 40.710938 42.964844 40.699219 42.941406 C 40.84375 42.871094 40.992188 42.8125 41.144531 42.765625 L 41.261719 42.765625 C 41.296875 42.78125 41.324219 42.804688 41.351562 42.832031 C 41.394531 42.894531 41.429688 42.960938 41.445312 43.039062 C 41.476562 43.132812 41.496094 43.230469 41.503906 43.328125 C 41.535156 43.519531 41.492188 43.691406 41.367188 43.84375 C 41.320312 43.910156 41.257812 43.964844 41.183594 44.007812 C 41.023438 44.105469 40.847656 44.164062 40.660156 44.183594 C 40.515625 44.203125 40.371094 44.203125 40.222656 44.183594 L 39.050781 44.046875 C 39.050781 44.046875 39.050781 44.242188 39.050781 44.335938 L 38.429688 44.824219 L 38.515625 43.96875 L 36.90625 43.785156 C 36.835938 43.773438 36.765625 43.773438 36.691406 43.785156 C 36.625 43.808594 36.558594 43.839844 36.5 43.882812 C 36.429688 43.929688 36.382812 43.996094 36.351562 44.074219 C 36.3125 44.1875 36.289062 44.304688 36.285156 44.425781 C 36.285156 44.550781 36.304688 44.667969 36.351562 44.785156 C 36.402344 44.921875 36.46875 45.046875 36.558594 45.164062 C 36.671875 45.328125 36.800781 45.480469 36.945312 45.617188 C 37.074219 45.738281 37.222656 45.828125 37.390625 45.890625 L 37.59375 45.949219 L 37.59375 45.878906 C 37.59375 45.738281 37.625 45.601562 37.683594 45.472656 C 37.722656 45.375 37.789062 45.296875 37.875 45.238281 C 37.957031 45.171875 38.050781 45.132812 38.15625 45.125 L 38.554688 45.125 C 38.710938 45.144531 38.847656 45.207031 38.964844 45.316406 C 39.023438 45.367188 39.070312 45.429688 39.097656 45.5 C 39.136719 45.570312 39.15625 45.644531 39.15625 45.726562 C 39.175781 45.847656 39.175781 45.972656 39.15625 46.09375 C 39.125 46.300781 39.03125 46.46875 38.867188 46.597656 C 38.636719 46.804688 38.367188 46.921875 38.0625 46.949219 C 37.925781 46.96875 37.789062 46.96875 37.652344 46.949219 C 37.375 46.90625 37.117188 46.8125 36.878906 46.667969 C 36.710938 46.5625 36.5625 46.441406 36.421875 46.308594 C 36.253906 46.140625 36.105469 45.960938 35.976562 45.765625 C 35.804688 45.515625 35.695312 45.246094 35.644531 44.949219 C 35.644531 44.832031 35.644531 44.714844 35.644531 44.597656 L 35.644531 44.445312 C 35.664062 44.277344 35.714844 44.121094 35.800781 43.980469 C 35.890625 43.832031 36 43.699219 36.128906 43.582031 C 36.21875 43.5 36.316406 43.425781 36.421875 43.367188 C 36.503906 43.320312 36.589844 43.285156 36.683594 43.269531 L 38.554688 43.484375 L 38.625 42.949219 L 39.246094 42.464844 Z M 39.226562 42.367188 " fill-opacity="1" fill-rule="nonzero"/><path fill="#ffffff" d="M 45.628906 51.167969 L 23.800781 51.167969 L 23.800781 51.652344 L 45.628906 51.652344 Z M 45.628906 51.167969 " fill-opacity="1" fill-rule="nonzero"/><path fill="#ffffff" d="M 45.628906 58.929688 L 23.800781 58.929688 L 23.800781 59.414062 L 45.628906 59.414062 Z M 45.628906 58.929688 " fill-opacity="1" fill-rule="nonzero"/><path fill="#dde9f7" d="M 39.921875 83.886719 C 39.9375 84.023438 39.933594 84.15625 39.917969 84.289062 C 39.898438 84.425781 39.863281 84.554688 39.8125 84.679688 C 39.761719 84.808594 39.699219 84.925781 39.617188 85.035156 C 39.539062 85.144531 39.449219 85.246094 39.347656 85.332031 C 39.242188 85.421875 39.128906 85.496094 39.007812 85.558594 C 38.886719 85.617188 38.761719 85.664062 38.628906 85.695312 C 38.496094 85.726562 38.363281 85.738281 38.226562 85.738281 C 38.09375 85.734375 37.960938 85.714844 37.828125 85.683594 L 24.023438 82.46875 C 23.71875 82.382812 23.433594 82.25 23.171875 82.070312 C 22.910156 81.890625 22.679688 81.675781 22.484375 81.425781 C 22.292969 81.175781 22.140625 80.898438 22.035156 80.601562 C 21.925781 80.300781 21.867188 79.992188 21.859375 79.675781 L 21.597656 56.011719 L 21.597656 54.789062 L 21.472656 45.726562 C 21.460938 45.589844 21.464844 45.457031 21.488281 45.320312 C 21.507812 45.1875 21.546875 45.058594 21.597656 44.933594 C 21.652344 44.808594 21.71875 44.691406 21.796875 44.582031 C 21.878906 44.472656 21.972656 44.375 22.074219 44.289062 C 22.179688 44.203125 22.292969 44.128906 22.414062 44.070312 C 22.535156 44.011719 22.664062 43.96875 22.796875 43.9375 C 22.925781 43.910156 23.0625 43.898438 23.195312 43.902344 C 23.332031 43.902344 23.464844 43.921875 23.597656 43.960938 L 37.382812 47.152344 C 37.683594 47.238281 37.96875 47.375 38.226562 47.550781 C 38.488281 47.730469 38.714844 47.945312 38.910156 48.195312 C 39.101562 48.445312 39.25 48.71875 39.355469 49.015625 C 39.460938 49.3125 39.519531 49.621094 39.527344 49.9375 Z M 39.921875 83.886719 " fill-opacity="1" fill-rule="nonzero"/><path fill="#5ba0d7" d="M 37.382812 46.25 L 23.597656 43.066406 C 23.40625 43.015625 23.210938 42.988281 23.011719 42.984375 C 22.8125 42.980469 22.617188 43 22.421875 43.042969 C 22.226562 43.085938 22.042969 43.152344 21.863281 43.242188 C 21.6875 43.332031 21.523438 43.441406 21.371094 43.570312 C 21.21875 43.699219 21.085938 43.84375 20.96875 44.003906 C 20.855469 44.164062 20.757812 44.339844 20.683594 44.523438 C 20.609375 44.707031 20.558594 44.898438 20.53125 45.09375 C 20.503906 45.292969 20.5 45.488281 20.519531 45.6875 L 20.617188 54.640625 L 20.617188 55.863281 L 20.890625 79.257812 C 20.9375 80.207031 21.261719 81.050781 21.859375 81.792969 C 22.4375 82.535156 23.175781 83.035156 24.082031 83.296875 L 37.886719 86.46875 C 38.078125 86.519531 38.273438 86.550781 38.472656 86.554688 C 38.667969 86.5625 38.867188 86.542969 39.058594 86.5 C 39.253906 86.457031 39.441406 86.394531 39.617188 86.304688 C 39.796875 86.21875 39.960938 86.109375 40.113281 85.980469 C 40.261719 85.851562 40.398438 85.707031 40.515625 85.546875 C 40.628906 85.386719 40.726562 85.214844 40.800781 85.03125 C 40.875 84.847656 40.925781 84.65625 40.953125 84.457031 C 40.980469 84.261719 40.980469 84.066406 40.960938 83.867188 L 40.59375 50.324219 C 40.566406 49.375 40.261719 48.523438 39.679688 47.773438 C 39.089844 47.003906 38.320312 46.496094 37.382812 46.25 Z M 39.921875 83.617188 C 39.933594 83.75 39.929688 83.882812 39.910156 84.015625 C 39.886719 84.148438 39.851562 84.277344 39.800781 84.402344 C 39.75 84.527344 39.683594 84.644531 39.605469 84.753906 C 39.523438 84.863281 39.433594 84.960938 39.328125 85.046875 C 39.226562 85.132812 39.113281 85.207031 38.992188 85.269531 C 38.875 85.328125 38.746094 85.371094 38.617188 85.402344 C 38.484375 85.433594 38.351562 85.445312 38.214844 85.445312 C 38.082031 85.441406 37.949219 85.425781 37.820312 85.390625 L 24.023438 82.207031 C 23.410156 82.03125 22.90625 81.6875 22.519531 81.179688 C 22.109375 80.675781 21.890625 80.101562 21.859375 79.453125 L 21.609375 56.058594 L 21.609375 54.835938 L 21.480469 45.898438 C 21.46875 45.765625 21.472656 45.628906 21.492188 45.496094 C 21.511719 45.363281 21.546875 45.234375 21.601562 45.109375 C 21.652344 44.984375 21.714844 44.867188 21.796875 44.757812 C 21.875 44.648438 21.96875 44.550781 22.070312 44.460938 C 22.175781 44.375 22.285156 44.300781 22.40625 44.242188 C 22.527344 44.179688 22.65625 44.136719 22.785156 44.105469 C 22.917969 44.078125 23.050781 44.066406 23.1875 44.066406 C 23.324219 44.070312 23.457031 44.089844 23.585938 44.125 L 37.382812 47.316406 C 37.992188 47.476562 38.496094 47.800781 38.894531 48.285156 C 39.292969 48.796875 39.503906 49.378906 39.535156 50.023438 Z M 39.921875 83.617188 " fill-opacity="1" fill-rule="nonzero"/><path fill="#5ba0d7" d="M 26.710938 46.132812 C 26.789062 46.746094 27.03125 47.285156 27.4375 47.753906 C 27.839844 48.230469 28.339844 48.554688 28.941406 48.722656 L 33.230469 49.695312 C 33.347656 49.734375 33.472656 49.761719 33.597656 49.769531 C 33.722656 49.78125 33.847656 49.773438 33.972656 49.75 C 34.097656 49.726562 34.214844 49.691406 34.332031 49.636719 C 34.445312 49.582031 34.550781 49.515625 34.648438 49.4375 C 34.746094 49.355469 34.832031 49.265625 34.90625 49.164062 C 34.980469 49.058594 35.039062 48.949219 35.085938 48.832031 C 35.128906 48.714844 35.160156 48.59375 35.175781 48.46875 C 35.1875 48.34375 35.1875 48.21875 35.171875 48.09375 Z M 29.804688 48.363281 C 29.675781 48.328125 29.566406 48.257812 29.476562 48.160156 C 29.390625 48.054688 29.335938 47.9375 29.320312 47.800781 C 29.304688 47.75 29.304688 47.699219 29.320312 47.644531 C 29.339844 47.597656 29.371094 47.554688 29.40625 47.519531 C 29.449219 47.484375 29.5 47.464844 29.554688 47.453125 L 29.699219 47.453125 C 29.984375 47.527344 30.148438 47.714844 30.191406 48.003906 C 30.203125 48.058594 30.203125 48.109375 30.191406 48.160156 C 30.175781 48.214844 30.144531 48.257812 30.105469 48.296875 C 30.0625 48.332031 30.015625 48.351562 29.960938 48.363281 Z M 32.890625 48.761719 L 30.667969 48.257812 L 30.667969 48.09375 L 32.871094 48.546875 L 32.871094 48.714844 Z M 32.890625 48.761719 " fill-opacity="1" fill-rule="nonzero"/><path fill="#5ba0d7" d="M 31.996094 81.664062 L 29.804688 81.160156 C 29.679688 81.125 29.578125 81.058594 29.496094 80.957031 C 29.417969 80.851562 29.378906 80.734375 29.367188 80.605469 C 29.355469 80.554688 29.355469 80.503906 29.367188 80.453125 C 29.386719 80.402344 29.414062 80.359375 29.457031 80.324219 C 29.496094 80.289062 29.539062 80.265625 29.589844 80.257812 C 29.644531 80.242188 29.695312 80.242188 29.746094 80.257812 L 31.96875 80.761719 C 32.238281 80.847656 32.371094 81.03125 32.367188 81.316406 C 32.382812 81.367188 32.382812 81.417969 32.367188 81.472656 C 32.347656 81.519531 32.320312 81.5625 32.277344 81.597656 C 32.238281 81.632812 32.195312 81.660156 32.144531 81.675781 C 32.09375 81.679688 32.046875 81.675781 31.996094 81.664062 Z M 31.996094 81.664062 " fill-opacity="1" fill-rule="nonzero"/></svg>